<?xml version="1.0" encoding="UTF-8" standalone="no"?>
<!-- Created with Inkscape (http://www.inkscape.org/) -->

<svg
   xmlns:dc="http://purl.org/dc/elements/1.1/"
   xmlns:cc="http://creativecommons.org/ns#"
   xmlns:rdf="http://www.w3.org/1999/02/22-rdf-syntax-ns#"
   xmlns:svg="http://www.w3.org/2000/svg"
   xmlns="http://www.w3.org/2000/svg"
   xmlns:sodipodi="http://sodipodi.sourceforge.net/DTD/sodipodi-0.dtd"
   xmlns:inkscape="http://www.inkscape.org/namespaces/inkscape"
   width="210mm"
   height="297mm"
   viewBox="0 0 744.09448819 1052.3622047"
   id="svg3520"
   version="1.1"
   inkscape:version="0.91 r13725"
   sodipodi:docname="Network-Icon_thin.svg">
  <defs
     id="defs3522" />
  <sodipodi:namedview
     id="base"
     pagecolor="#ffffff"
     bordercolor="#666666"
     borderopacity="1.0"
     inkscape:pageopacity="0.0"
     inkscape:pageshadow="2"
     inkscape:zoom="0.98994949"
     inkscape:cx="243.3836"
     inkscape:cy="568.98723"
     inkscape:document-units="px"
     inkscape:current-layer="layer1"
     showgrid="false"
     inkscape:window-width="1280"
     inkscape:window-height="961"
     inkscape:window-x="-8"
     inkscape:window-y="-8"
     inkscape:window-maximized="1" />
  <metadata
     id="metadata3525">
    <rdf:RDF>
      <cc:Work
         rdf:about="">
        <dc:format>image/svg+xml</dc:format>
        <dc:type
           rdf:resource="http://purl.org/dc/dcmitype/StillImage" />
        <dc:title></dc:title>
      </cc:Work>
    </rdf:RDF>
  </metadata>
  <g
     inkscape:label="Layer 1"
     inkscape:groupmode="layer"
     id="layer1">
    <path
       inkscape:connector-curvature="0"
       id="path4726"
       d="m 388.29298,271.10536 c -153.01739,0 -261.0625,108.04511 -261.0625,261.0625 0,153.01739 108.04511,261.0625 261.0625,261.0625 153.01739,0 261.0625,-108.04511 261.0625,-261.0625 0,-153.01739 -108.04511,-261.0625 -261.0625,-261.0625 z m -2.76171,36.1601 c -29.51714,11.8672 -57.00128,27.738 -81.74219,46.9805 3.05781,-11.8319 6.85016,-23.3652 11.3125,-34.5586 22.66416,-7.86905 46.44101,-12.06265 70.42969,-12.4219 z m 47.9375,4.5098 0.002,0 c 13.35188,2.78086 26.42326,6.76995 39.05273,11.918 -8.12715,6.9197 -16.02221,14.1646 -23.625,21.7675 -25.92616,25.9261 -47.93531,55.0351 -65.66992,86.4004 -0.74161,-0.0686 -1.48573,-0.10636 -2.23047,-0.1133 -14.88771,-10e-4 -26.9572,12.06739 -26.95703,26.9551 0.009,6.81191 2.59623,13.36791 7.24219,18.3496 -8.67819,21.1345 -15.56893,43.0055 -20.55078,65.3868 -9.05823,-2.9977 -17.91624,-6.4299 -26.55274,-10.2715 -6.16061,-15.8566 -10.95967,-32.3947 -14.27343,-49.4649 9.01496,-4.60666 14.68849,-13.87623 14.68945,-24 -0.015,-12.18011 -8.19624,-22.8368 -19.95899,-25.998 -0.0352,-1.863 -0.0664,-3.7281 -0.0664,-5.5996 0,-14.6048 1.08998,-28.9504 3.16992,-42.9727 38.08103,-34.2597 84.45169,-59.4545 135.72852,-72.3574 z m -142.17579,17.6074 c -4.89079,14.6603 -8.78027,29.7762 -11.43945,45.3184 -25.96959,24.3501 -48.11135,52.7352 -65.42383,84.1484 -8.95905,-10.1637 -17.18309,-20.9831 -24.66406,-32.3379 22.6066,-42.38392 58.18438,-76.42038 101.52734,-97.1289 z m 200.58985,3.2598 c 62.92776,32.65729 106.78265,93.06388 118.3457,163.0117 -8.0127,6.2583 -16.36608,12.1012 -25.01758,17.5098 -4.8786,-4.17086 -11.08542,-6.46397 -17.5039,-6.4668 -14.88541,9.2e-4 -26.95219,12.06769 -26.95313,26.9531 0.005,0.73287 0.0392,1.46524 0.10352,2.1953 -33.5929,13.6731 -70.32308,21.2422 -108.86719,21.2422 -25.16178,0 -49.56855,-3.2023 -72.83984,-9.2149 4.67221,-21.334 11.16538,-42.1845 19.36132,-62.3398 0.82641,0.0799 1.65607,0.12165 2.48633,0.125 14.88619,-9.2e-4 26.9533,-12.06891 26.95313,-26.9551 -0.006,-6.90389 -2.66004,-13.54246 -7.41602,-18.5469 16.77754,-29.4391 37.52736,-56.7694 61.90821,-81.1503 9.36684,-9.3668 19.24931,-18.0882 29.43945,-26.3633 z m -215.71289,72.8222 c -0.49561,7.1503 -0.75391,14.3653 -0.75391,21.6407 0,2.5177 0.0414,5.0259 0.10156,7.5293 -9.09146,4.57888 -14.82796,13.88887 -14.83007,24.0683 0.0159,12.24176 8.27927,22.93552 20.12109,26.0391 2.2578,11.9378 5.19291,23.6385 8.78125,35.0508 -22.4913,-12.6967 -43.11286,-28.3061 -61.35352,-46.3242 13.01058,-24.7611 29.16093,-47.6049 47.9336,-68.004 z m -95.8086,40.9844 c 7.63187,10.6868 15.88564,20.8996 24.78321,30.5156 -17.20955,36.2207 -28.19151,75.9638 -31.56055,117.8438 -0.58855,-0.4355 -1.14088,-0.9165 -1.72656,-1.3555 -5.66376,-19.93642 -8.54583,-40.55978 -8.56446,-61.2851 0.0318,-29.41392 5.83065,-58.5362 17.06836,-85.7188 z m 39.10938,45.0313 c 23.43666,22.2155 50.34926,40.7976 79.83008,54.8496 8.73865,20.8552 19.69605,40.551 32.58203,58.7929 -0.50308,8.1896 -0.75781,16.4157 -0.75781,24.668 0,9.9296 0.36858,19.8204 1.0957,29.6563 -14.53129,-1.9938 -28.77198,-4.8889 -42.66992,-8.6211 -0.95744,-14.14767 -12.71255,-25.13443 -26.89258,-25.1348 -7.59769,0.0119 -14.83753,3.22967 -19.9375,8.8613 -17.72806,-7.6278 -34.69618,-16.6813 -50.75,-27.0312 1.87423,-41.1961 11.52034,-80.3502 27.5,-116.041 z m 393.30664,26.1308 c 0.32893,4.8454 0.50089,9.70017 0.51562,14.5567 -0.006,14.88749 -1.49011,29.73761 -4.42968,44.332 -26.4018,23.1764 -56.34863,42.4135 -88.92383,56.793 -5.10883,-5.86151 -12.49996,-9.23137 -20.27539,-9.2442 -14.53737,0.0155 -26.44356,11.55617 -26.91211,26.086 -19.21153,5.3185 -39.09179,9.038 -59.49609,10.9785 -23.55053,-17.2526 -44.39738,-37.9695 -61.78516,-61.4141 0.87379,-11.092 2.22608,-22.1056 4.04883,-33.0156 24.46024,6.2358 50.08005,9.5586 76.4707,9.5586 41.47087,0 81.00219,-8.2445 117.12109,-23.1231 5.00563,4.7933 11.6652,7.47436 18.59571,7.4864 14.88695,1.5e-4 26.95524,-12.06815 26.95507,-26.9551 -0.01,-1.24012 -0.10498,-2.4781 -0.28515,-3.7051 6.284,-3.8997 12.42449,-8.0097 18.40039,-12.334 z m -287.41211,39.709 c 3.84084,1.4137 7.72424,2.7365 11.63477,4 -0.77163,4.465 -1.47051,8.946 -2.0918,13.4434 -3.37296,-5.6926 -6.55713,-11.5082 -9.54297,-17.4434 z m 279.7832,33.8789 c -0.59216,2.49768 -1.22701,4.98504 -1.90429,7.461 0.67728,-2.47596 1.31213,-4.96332 1.90429,-7.461 z m -5.52929,17.3906 c -14.63648,40.54248 -40.61036,76.0276 -74.83204,102.2344 -31.10059,-6.5048 -60.37386,-17.9568 -86.93164,-33.543 13.99195,-2.2263 27.71567,-5.2571 41.13282,-9.0234 5.11411,6.13721 12.68708,9.68976 20.67578,9.6992 14.79056,-0.007 26.81295,-11.9307 26.9414,-26.7207 26.0558,-11.4148 50.53768,-25.7648 73.01368,-42.6465 z m -249.33204,20.0957 c 10.50986,12.196 21.96334,23.5536 34.23243,33.9805 -1.52914,0.02 -3.05989,0.031 -4.59375,0.031 -9.53607,0 -18.98131,-0.3896 -28.32227,-1.1426 -0.87562,-10.5258 -1.32422,-21.1218 -1.32422,-31.7637 0,-0.3688 0.007,-0.7369 0.008,-1.1055 z m -158.56835,1.1192 c 14.07969,8.4548 28.77607,15.9842 44,22.5176 -0.006,0.10803 -0.0111,0.2161 -0.0156,0.3242 -1.7e-4,14.88695 12.06813,26.95526 26.95508,26.9551 8.33646,-0.0128 16.19788,-3.88226 21.29297,-10.4805 16.31094,4.4225 33.07127,7.7502 50.19922,9.8887 3.14506,25.5031 8.79272,50.5161 16.65429,74.7636 -66.99237,-11.37832 -125.2541,-52.42323 -158.51953,-111.6757 -0.24789,-4.0813 -0.47248,-8.1698 -0.5664,-12.2911 l 0,0 z m 216.3125,50.9824 c 28.62657,19.957 60.86262,34.9981 95.41406,44.3906 -34.79844,20.84911 -74.58624,31.9025 -115.15235,31.9903 -5.5063,-0.0735 -11.00806,-0.34905 -16.49414,-0.8262 -8.53276,-24.3698 -14.61432,-49.6337 -18.08789,-75.4219 8.65959,0.6135 17.40007,0.9317 26.21485,0.9317 9.45644,0 18.82849,-0.3595 28.10547,-1.0645 z"
       style="font-style:normal;font-variant:normal;font-weight:normal;font-stretch:condensed;font-size:medium;line-height:125%;font-family:Impact;-inkscape-font-specification:'Impact Condensed';letter-spacing:0px;word-spacing:0px;fill:#000000;fill-opacity:1;stroke:none;stroke-width:1px;stroke-linecap:butt;stroke-linejoin:miter;stroke-opacity:1"
       sodipodi:nodetypes="ssssscccccccscccccccccsccccccccccccccscccccscccccscccccccccccccccscccccccccccccccscccccccccccccccccccccsccccccccccccccccccc" />
  </g>
</svg>
